<svg width="33" height="28" viewBox="0 0 33 28" fill="none" xmlns="http://www.w3.org/2000/svg">
<path fill-rule="evenodd" clip-rule="evenodd" d="M2.26858 11.7732C11.1269 7.91372 17.0339 5.36934 19.9894 4.14002C28.4282 0.630064 30.1817 0.0203479 31.3246 0.000214665C31.5759 -0.00421341 32.138 0.0580836 32.502 0.353501C32.8095 0.602946 32.894 0.939911 32.9345 1.17641C32.975 1.41291 33.0254 1.95167 32.9853 2.37264C32.528 7.1775 30.5493 18.8376 29.5427 24.2192C29.1167 26.4963 28.278 27.2598 27.466 27.3345C25.7014 27.4969 24.3614 26.1683 22.6523 25.048C19.9779 23.2949 18.467 22.2035 15.871 20.4928C12.8709 18.5158 14.8157 17.4292 16.5255 15.6533C16.9729 15.1886 24.7479 8.11669 24.8984 7.47516C24.9172 7.39493 24.9346 7.09585 24.757 6.93793C24.5793 6.78 24.3171 6.83401 24.1278 6.87696C23.8596 6.93784 19.5872 9.76176 11.3105 15.3487C10.0978 16.1815 8.99937 16.5872 8.0152 16.5659C6.93024 16.5425 4.84321 15.9525 3.29171 15.4482C1.38874 14.8296 -0.123705 14.5025 0.00799456 13.452C0.076592 12.9048 0.83012 12.3452 2.26858 11.7732Z" fill="#571F42"/>
</svg>
